<?xml version="1.0" standalone="no"?>
<!DOCTYPE svg PUBLIC "-//W3C//DTD SVG 20010904//EN"
 "http://www.w3.org/TR/2001/REC-SVG-20010904/DTD/svg10.dtd">
<svg version="1.0" xmlns="http://www.w3.org/2000/svg"
 width="980.000000pt" height="980.000000pt" viewBox="0 0 980.000000 980.000000"
 preserveAspectRatio="xMidYMid meet">

<g transform="translate(0.000000,980.000000) scale(0.100000,-0.100000)"
fill="#000000" stroke="none">
<path d="M7130 8120 c-153 -27 -308 -137 -378 -268 -17 -31 -159 -381 -317
-777 -315 -789 -307 -764 -246 -815 l30 -26 -268 -674 c-148 -371 -386 -967
-529 -1325 -339 -849 -356 -903 -357 -1135 0 -144 22 -235 75 -308 16 -23 30
-47 30 -52 0 -6 -18 -57 -40 -112 -22 -56 -40 -118 -40 -137 1 -68 68 -113
134 -91 42 14 52 28 105 161 l42 106 60 11 c33 6 85 26 117 44 121 69 281 267
369 455 20 43 276 677 568 1408 509 1275 532 1330 555 1328 41 -3 90 17 107
43 9 14 118 282 243 597 149 374 233 573 243 575 9 2 31 -5 50 -15 l35 -18
-275 -689 c-269 -674 -275 -690 -264 -727 14 -46 47 -71 96 -72 75 -2 62 -29
423 874 230 575 334 846 334 873 1 53 -44 96 -100 96 -52 0 -79 -23 -109 -91
-14 -32 -32 -59 -39 -59 -7 0 -29 7 -47 16 l-34 16 25 72 c137 388 -195 786
-598 716z m233 -234 c73 -35 138 -107 166 -182 18 -47 22 -74 19 -134 -4 -71
-19 -112 -256 -705 -295 -736 -282 -705 -296 -705 -6 0 -144 53 -306 119 -207
83 -294 122 -292 132 8 39 527 1327 547 1359 39 61 123 121 200 141 57 15 161
4 218 -25z m-749 -1802 c105 -41 195 -79 199 -84 5 -4 -165 -444 -378 -976
-212 -533 -436 -1095 -497 -1249 -62 -154 -113 -281 -114 -283 -4 -6 -398 156
-401 165 -2 5 163 428 367 939 205 511 429 1072 498 1246 70 175 129 318 131
318 2 0 90 -34 195 -76z m-1069 -2709 c104 -41 190 -77 192 -79 3 -2 -10 -33
-28 -67 -98 -195 -249 -349 -343 -349 -63 0 -102 107 -93 256 6 105 54 314 72
314 6 0 96 -34 200 -75z"/>
<path d="M2815 7793 c-108 -15 -247 -72 -329 -136 -110 -84 -200 -212 -243
-344 -21 -63 -27 -105 -31 -215 l-5 -138 -166 0 c-187 0 -219 -9 -255 -70 -26
-43 -25 -113 0 -147 48 -64 60 -68 250 -71 l174 -4 0 -549 0 -549 -170 0
c-189 0 -211 -5 -251 -61 -43 -61 -21 -160 44 -199 28 -18 51 -20 205 -20
l172 0 0 -549 0 -550 -174 -3 c-158 -3 -177 -5 -202 -24 -92 -68 -92 -170 0
-238 25 -19 44 -21 202 -24 l174 -3 -2 -550 -3 -549 -170 -3 c-145 -2 -175 -5
-198 -20 -64 -42 -86 -131 -47 -194 34 -57 60 -63 248 -63 l169 0 5 -142 c4
-117 10 -157 31 -221 74 -227 252 -397 489 -464 60 -17 159 -18 1848 -18 1692
0 1788 1 1849 18 150 43 286 133 374 250 65 85 78 110 111 208 l25 74 193 5
c180 5 197 7 248 31 111 52 204 163 236 283 20 74 20 818 0 892 -33 123 -115
221 -234 277 -67 32 -68 32 -249 35 l-183 4 0 108 0 108 173 4 c145 4 181 8
231 26 119 43 223 153 257 269 11 38 14 138 14 473 0 386 -2 430 -18 477 -26
74 -94 163 -158 205 -91 60 -144 73 -304 73 l-139 0 -168 -420 -168 -420 0
-1176 c0 -1283 2 -1225 -56 -1325 -36 -62 -116 -131 -192 -167 l-67 -32 -1775
0 -1775 0 -70 33 c-113 53 -185 134 -225 251 -15 46 -20 86 -20 171 l0 110
173 0 c151 0 176 2 203 19 60 36 81 127 44 188 -33 55 -64 64 -223 64 -78 0
-154 3 -169 6 l-28 5 0 549 0 549 160 0 c179 0 209 7 253 59 39 46 39 126 0
172 -44 52 -74 59 -253 59 l-160 0 0 550 0 550 173 0 c153 0 176 2 204 20 85
51 85 189 0 240 -28 18 -51 20 -204 20 l-173 0 0 553 0 552 174 0 c190 0 201
3 249 67 24 32 25 107 2 145 -38 63 -53 68 -249 71 l-178 3 4 122 c4 96 9 134
27 180 33 84 114 168 209 214 l76 38 1750 3 c1556 2 1757 0 1806 -13 30 -9 61
-17 69 -18 8 -1 30 42 62 122 27 69 47 126 45 128 -10 11 -122 44 -177 52 -61
10 -3473 14 -3544 4z m4492 -2616 l38 -37 0 -405 0 -405 -38 -37 -37 -38 -160
-3 -160 -3 0 486 0 486 160 -3 160 -3 37 -38z m-26 -1722 c16 -9 39 -30 49
-48 19 -30 20 -53 20 -418 0 -386 0 -386 -23 -420 -38 -57 -64 -64 -227 -64
l-145 0 -3 483 -2 482 150 0 c117 0 158 -4 181 -15z"/>
<path d="M3338 6944 c-53 -28 -73 -105 -43 -164 33 -63 -38 -60 1215 -60 1000
0 1145 2 1170 15 69 36 80 144 21 197 l-31 28 -1153 0 c-999 -1 -1156 -3
-1179 -16z"/>
<path d="M3354 6386 c-47 -21 -74 -61 -74 -112 0 -36 6 -51 34 -82 l34 -37
1162 0 1162 0 34 37 c28 31 34 45 34 83 0 38 -6 52 -34 83 l-34 37 -1144 2
c-942 2 -1148 0 -1174 -11z"/>
<path d="M3339 5813 c-91 -56 -73 -194 29 -223 50 -14 2233 -14 2284 0 76 21
111 107 73 180 -33 63 38 60 -1217 60 -1039 -1 -1145 -2 -1169 -17z"/>
</g>
</svg>
